<svg width="32" height="32" viewBox="0 0 32 32" fill="none" xmlns="http://www.w3.org/2000/svg">
<path d="M18.2021 13.9855H16.8716V19.5073H18.2021V13.9855Z" fill="#808080"/>
<path d="M15.4624 13.9855H14.1318V19.5073H15.4624V13.9855Z" fill="#808080"/>
<path d="M22.478 11.1671C22.4754 11.0306 22.4295 10.8985 22.3469 10.7897C22.2642 10.681 22.1492 10.6014 22.0184 10.5623C21.9596 10.5378 21.8974 10.5225 21.8339 10.517H18.2868C18.1525 10.0779 17.8808 9.69355 17.5117 9.42047C17.1426 9.14739 16.6956 9 16.2365 9C15.7774 9 15.3304 9.14739 14.9613 9.42047C14.5922 9.69355 14.3205 10.0779 14.1862 10.517H10.6391C10.5807 10.5181 10.5227 10.5273 10.4667 10.5442H10.4516C10.3132 10.587 10.1933 10.6755 10.1116 10.7951C10.0299 10.9148 9.99117 11.0587 10.0017 11.2032C10.0122 11.3477 10.0714 11.4844 10.1696 11.591C10.2678 11.6976 10.3992 11.7677 10.5423 11.7901L11.253 21.5334C11.2638 21.9127 11.4169 22.2741 11.6819 22.5458C11.9469 22.8175 12.3044 22.9797 12.6833 23H19.7867C20.1662 22.9804 20.5244 22.8186 20.79 22.5468C21.0556 22.2751 21.2092 21.9132 21.22 21.5334L21.9277 11.7991C22.0802 11.778 22.22 11.7023 22.3212 11.5862C22.4223 11.47 22.478 11.3212 22.478 11.1671ZM16.2365 10.2146C16.3661 10.2146 16.4943 10.2415 16.6129 10.2935C16.7316 10.3456 16.8382 10.4216 16.926 10.517H15.547C15.6346 10.4214 15.7411 10.3451 15.8599 10.293C15.9786 10.2409 16.1069 10.2142 16.2365 10.2146ZM19.7867 21.7904H12.6833C12.6017 21.7904 12.4747 21.6573 12.4595 21.4457L11.758 11.8112H20.715L20.0135 21.4457C19.9984 21.6573 19.8714 21.7904 19.7867 21.7904Z" fill="#808080"/>
</svg>
